<?xml version="1.0" encoding="UTF-8" standalone="no"?>
<!-- Created with Inkscape (http://www.inkscape.org/) -->

<svg
   width="250mm"
   height="250mm"
   viewBox="0 0 250 250"
   version="1.1"
   id="svg5"
   xml:space="preserve"
   inkscape:version="1.2 (dc2aedaf03, 2022-05-15)"
   sodipodi:docname="ShubhGraphix Logo.svg"
   inkscape:export-filename="Shubhlogo.png"
   inkscape:export-xdpi="2000"
   inkscape:export-ydpi="2000"
   xmlns:inkscape="http://www.inkscape.org/namespaces/inkscape"
   xmlns:sodipodi="http://sodipodi.sourceforge.net/DTD/sodipodi-0.dtd"
   xmlns="http://www.w3.org/2000/svg"
   xmlns:svg="http://www.w3.org/2000/svg"
   xmlns:rdf="http://www.w3.org/1999/02/22-rdf-syntax-ns#"
   xmlns:cc="http://creativecommons.org/ns#"><sodipodi:namedview
     id="namedview7"
     pagecolor="#ffffff"
     bordercolor="#000000"
     borderopacity="0.25"
     inkscape:showpageshadow="true"
     inkscape:pageopacity="0.0"
     inkscape:pagecheckerboard="0"
     inkscape:deskcolor="#d1d1d1"
     inkscape:document-units="px"
     showgrid="false"
     showborder="true"
     showguides="true"
     inkscape:zoom="0.23830317"
     inkscape:cx="428.02619"
     inkscape:cy="75.534034"
     inkscape:window-width="1366"
     inkscape:window-height="715"
     inkscape:window-x="-8"
     inkscape:window-y="-8"
     inkscape:window-maximized="1"
     inkscape:current-layer="layer1"><sodipodi:guide
       position="406.06934,196.64788"
       orientation="1,0"
       id="guide402"
       inkscape:locked="false" /><sodipodi:guide
       position="308.71858,59.257698"
       orientation="0.65446607,-0.75609137"
       id="guide465"
       inkscape:locked="false" /></sodipodi:namedview><defs
     id="defs2"><rect
       x="488.87305"
       y="316.8233"
       width="367.17935"
       height="270.66364"
       id="rect5944" /><inkscape:path-effect
       effect="fill_between_many"
       method="originald"
       linkedpaths="#path3238,0,1|#path2704,0,1"
       id="path-effect3254"
       is_visible="true"
       lpeversion="0"
       join="true"
       close="true"
       autoreverse="true" /></defs><g
     inkscape:label="Layer 1"
     inkscape:groupmode="layer"
     id="layer1"
     transform="translate(-33.57925,-91.103849)"><g
       aria-label=" GraphiX"
       transform="matrix(0.99247371,0,0,0.99436752,6.22997,0.41329164)"
       id="text6968-3"
       style="font-weight:500;font-size:31.9706px;font-family:'NeoGothis ADF Std';-inkscape-font-specification:'NeoGothis ADF Std, Medium';text-align:end;letter-spacing:1.32292px;word-spacing:9.26042px;direction:rtl;text-anchor:end;white-space:pre;fill:#2a80ff;fill-rule:evenodd;stroke-width:0" /><g
       id="g1200"
       transform="matrix(1.2265214,0,0,1.2265214,2.9666495,68.833026)"><g
         id="g5395"
         transform="matrix(0.89159294,0,0,0.89159294,13.753942,13.016647)"><g
           id="g5371"
           style="font-weight:500;font-size:31.9706px;font-family:'NeoGothis ADF Std';-inkscape-font-specification:'NeoGothis ADF Std, Medium';text-align:end;letter-spacing:1.32292px;word-spacing:9.26042px;direction:rtl;text-anchor:end;white-space:pre;fill:#2a80ff;fill-rule:evenodd;stroke-width:0"
           transform="matrix(0.9924737,0,0,0.99436751,6.2299699,0.41329163)"><path
             d="m 120.15801,119.09658 c -6.49004,0 -11.76518,4.95544 -11.76518,11.31759 0,6.36215 5.27514,11.38153 11.76518,11.38153 5.94653,0 11.73321,-4.25209 11.76518,-10.35847 v -2.49371 h -11.66927 v 2.62159 h 8.82388 c -0.0959,3.83647 -3.48479,7.2893 -8.91979,7.35324 -4.89151,0 -8.85586,-3.74056 -8.85586,-8.53615 0,-4.79559 3.96435,-8.50418 8.85586,-8.50418 h 6.49003 l 0.032,-2.78144 z"
             style="-inkscape-font-specification:'NeoGothis ADF Std Medium';fill:#00222b"
             id="path5101" /><path
             d="m 141.0282,126.76952 c -1.88627,0 -3.90042,0.99109 -4.95545,2.20597 v -1.88626 h -2.74947 V 141.476 h 2.74947 v -7.19339 c 0,-2.62159 2.23795,-4.76362 4.95545,-4.76362 h 0.25576 v -2.74947 z"
             style="-inkscape-font-specification:'NeoGothis ADF Std Medium';fill:#00222b;fill-opacity:1"
             id="path5103" /><path
             d="m 148.77208,129.6149 c 2.7175,0 4.95544,2.11006 4.95544,4.69968 0,2.58962 -2.23794,4.69968 -4.95544,4.69968 -2.68553,0 -4.85953,-2.11006 -4.85953,-4.69968 0,-2.58962 2.174,-4.69968 4.85953,-4.69968 z m 0,-2.84538 c -4.28406,0 -7.76886,3.38888 -7.76886,7.54506 0,4.15618 3.4848,7.48112 7.76886,7.48112 1.85429,0 3.64465,-0.70335 4.95544,-1.82232 l 2.52568,1.82232 v -14.70647 h -2.52568 v 1.66247 c -1.31079,-1.21489 -3.06918,-1.98218 -4.95544,-1.98218 z"
             style="-inkscape-font-specification:'NeoGothis ADF Std Medium';fill:#00222b;fill-opacity:1"
             id="path5105" /><path
             d="m 166.13909,138.91835 c -2.74947,0 -4.98741,-2.01415 -4.98741,-4.66771 0,-2.62159 2.23794,-4.63574 4.98741,-4.63574 2.68553,0 4.73165,2.01415 4.73165,4.63574 0,2.65356 -2.04612,4.66771 -4.73165,4.66771 z m 0,2.87735 c 4.28406,0 7.64098,-3.32494 7.64098,-7.54506 0,-4.22012 -3.35692,-7.48112 -7.64098,-7.48112 -1.85429,0 -3.67662,0.73532 -4.98741,1.8543 l -2.68553,-1.8543 v 22.69913 h 2.68553 v -9.65512 c 1.31079,1.21488 3.10115,1.98217 4.98741,1.98217 z"
             style="-inkscape-font-specification:'NeoGothis ADF Std Medium';fill:#00222b;fill-opacity:1"
             id="path5107" /><path
             d="m 182.93062,126.76952 c -1.88626,0 -3.90041,0.99109 -4.95544,2.26991 v -9.94285 h -2.74947 V 141.476 h 2.74947 v -7.06551 c 0,-2.65356 2.23794,-4.79559 4.95544,-4.79559 2.68553,0 4.89151,2.14203 4.89151,4.79559 v 7.06551 h 2.84538 v -7.06551 c 0,-4.22012 -3.45283,-7.64097 -7.73689,-7.64097 z"
             style="-inkscape-font-specification:'NeoGothis ADF Std Medium';fill:#00222b"
             id="path5109" /><path
             d="m 194.59329,120.53525 c -1.087,0 -2.01415,0.89518 -2.01415,1.98218 0,1.05503 0.92715,1.95021 2.01415,1.95021 1.087,0 2.01415,-0.89518 2.01415,-1.95021 0,-1.087 -0.92715,-1.98218 -2.01415,-1.98218 z m -1.4067,6.49004 V 141.476 h 2.78144 v -14.45071 z"
             style="-inkscape-font-specification:'NeoGothis ADF Std Medium';fill:#00222b"
             id="path5111" /><path
             d="m 215.55939,119.09658 h -4.09223 l -5.14727,7.83279 -5.1153,-7.83279 h -4.1242 l 7.25732,11.22168 -7.25732,11.15774 h 4.15617 l 5.08333,-7.80083 5.08332,7.80083 h 4.09224 l -7.19338,-11.15774 z"
             style="-inkscape-font-specification:'NeoGothis ADF Std Bold'"
             id="path5113" /></g><g
           aria-label="Shubh"
           transform="scale(0.99210227,1.0079606)"
           id="text7626-5"
           style="font-size:29.1083px;line-height:0.6;font-family:Azonix;-inkscape-font-specification:Azonix;text-align:end;letter-spacing:-1.21691px;word-spacing:-0.00940486px;direction:rtl;text-anchor:end;fill:#ffa400;fill-opacity:0.74902;fill-rule:evenodd;stroke-width:0"><path
             d="m 134.05838,96.150211 v -0.116433 c 0,-3.027263 -2.47421,-5.501468 -5.50147,-5.501468 h -8.26676 c -3.02726,0 -5.47236,2.474205 -5.47236,5.501468 v 0.116433 c 0,1.164332 0.3493,2.24134 0.96057,3.114588 0.20376,0.320192 0.43663,0.611275 0.6986,0.873251 0.98969,0.96057 2.32867,1.54274 3.81319,1.54274 h 7.33529 c 1.54274,0 2.82351,1.25166 2.82351,2.7944 0,1.54273 -1.28077,2.79439 -2.82351,2.79439 h -6.37472 c -1.54274,0 -2.79439,-1.25166 -2.79439,-2.79439 h -3.63854 c 0,3.55121 2.88172,6.43293 6.43293,6.43293 h 6.37472 c 3.55121,0 6.43294,-2.88172 6.43294,-6.43293 0,-1.54274 -0.55306,-2.96905 -1.45542,-4.07517 -0.0873,-0.0873 -0.14554,-0.17465 -0.23287,-0.26197 -1.16433,-1.280767 -2.85261,-2.095799 -4.74465,-2.095799 h -7.33529 c -1.01879,0 -1.86293,-0.844141 -1.86293,-1.862931 v -0.116433 c 0,-1.018791 0.84414,-1.862932 1.86293,-1.862932 h 8.26676 c 1.01879,0 1.86293,0.844141 1.86293,1.862932 v 0.116433 z"
             id="path4973" /><path
             d="m 152.48954,90.53231 v 7.393508 H 139.39081 V 90.53231 h -3.63854 v 20.37581 h 3.63854 v -9.34376 h 13.09873 v 9.34376 h 3.63854 V 90.53231 Z"
             id="path4975" /><path
             d="m 174.55925,90.53231 v 10.1879 c 0,3.60943 -2.93994,6.54937 -6.54937,6.54937 -3.60943,0 -6.54937,-2.93994 -6.54937,-6.54937 v -10.1879 h -3.63853 v 10.1879 c 0,5.61791 4.57,10.18791 10.1879,10.18791 5.6179,0 10.18791,-4.57 10.18791,-10.18791 v -10.1879 z"
             id="path4977" /><path
             d="m 197.35667,99.002825 c 0.55305,-0.844141 0.87325,-1.862931 0.87325,-2.969047 0,-3.027263 -2.47421,-5.501468 -5.50147,-5.501468 h -12.83676 v 20.37581 h 13.88466 c 3.58032,0 6.49115,-2.91083 6.49115,-6.49115 0,-2.27045 -1.16434,-4.24981 -2.91083,-5.414145 z m -13.82645,-4.831978 h 9.22733 c 1.0188,0 1.86294,0.844141 1.86294,1.862931 0,1.018791 -0.84414,1.862931 -1.86294,1.862931 h -9.22733 z m 10.24613,13.098733 h -10.24613 v -5.73433 h 10.24613 c 1.57184,0 2.85261,1.28076 2.85261,2.85261 0,1.57185 -1.28077,2.85261 -2.85261,2.85261 z"
             id="path4979" /><path
             d="m 217.97097,90.53231 v 7.393508 H 204.87223 V 90.53231 h -3.63853 v 20.37581 h 3.63853 v -9.34376 h 13.09874 v 9.34376 h 3.63854 V 90.53231 Z"
             id="path4981" /></g></g><g
         id="g5476"
         transform="matrix(0.89159294,0,0,0.89159294,13.753942,13.016647)"><path
           id="path1756"
           style="font-variation-settings:normal;fill:#00aad4;fill-opacity:0.811927;fill-rule:evenodd;stroke:none;stroke-width:1.59995;stroke-linecap:butt;stroke-linejoin:miter;stroke-miterlimit:4;stroke-dasharray:none;stroke-dashoffset:0;stroke-opacity:1;stop-color:#000000"
           d="m 68.891486,104.42273 v 31.58592 h 3.851147 v -31.58592 z" /><g
           id="g1760"
           style="fill:#2a80ff;fill-opacity:1;stroke:none;stroke-opacity:1"
           transform="matrix(5.674746,0,0,5.3869042,-397.93331,-1066.9169)"><path
             id="path1758"
             style="opacity:1;fill:#2a80ff;fill-opacity:1;fill-rule:evenodd;stroke:none;stroke-width:0.065;stroke-dasharray:none;stroke-opacity:1;stop-color:#000000;stop-opacity:1"
             d="m 87.18457,224.74501 -1.283762,0.0173 -1.344735,-1.80123 -0.01284,-1.57853 c 0.893523,1.06197 1.773714,2.24402 2.641337,3.36246 z m 0,-8.82778 -1.283762,-0.0173 -1.344735,1.80123 -0.01284,1.57853 c 0.893523,-1.06197 1.773714,-2.24402 2.641337,-3.36246 z m -9.152674,0 1.283762,-0.0173 1.344735,1.80123 0.01284,1.57853 c -0.893523,-1.06197 -1.773714,-2.24402 -2.641337,-3.36246 z m 0,8.82778 1.283762,0.0173 1.344735,-1.80123 0.01284,-1.57853 c -0.893523,1.06197 -1.773714,2.24402 -2.641337,3.36246 z m 6.947543,-4.39747 c 2.42006,-3.28432 4.16355,-5.37792 4.16355,-5.37792 l -3.757052,0.008 -1.844858,2.43715 0.0491,5.92117 1.812628,2.37075 3.674311,6.6e-4 z m -4.77502,0 c -2.42006,-3.28432 -4.16356,-5.37792 -4.16356,-5.37792 l 3.75706,0.008 1.84486,2.43715 -0.0491,5.92116 -1.799532,2.37076 -3.687408,5.6e-4 z" /></g><path
           id="path1762"
           style="fill:#ffa400;fill-opacity:0.74902;fill-rule:evenodd;stroke:none;stroke-width:0.0649999;stroke-dasharray:none"
           class="UnoptimicedTransforms"
           d="m 82.213686,223.27743 -0.434046,1.14482 c 0.605908,0.17665 0.693898,0.90229 0.832372,1.38225 l -0.009,-1.35609 0.029,9.4e-4 c -0.06405,-0.0128 -0.106066,-0.0691 -0.106,-0.13436 -3.8e-5,-0.0756 0.06358,-0.13698 0.13922,-0.13694 0.07545,2.5e-4 0.138818,0.0615 0.13878,0.13694 1.7e-5,0.0655 -0.03874,0.11837 -0.103,0.13094 l 0.02726,0.003 v 1.35557 c 0.17007,-0.64491 0.281687,-1.2723 0.787951,-1.398 l -0.437375,-1.12907 c -0.504469,-0.003 -0.566939,0.003 -0.820648,0 z"
           sodipodi:nodetypes="ccccccccccccccc"
           transform="matrix(4.6279147,0,0,4.9854007,-311.66201,-976.72493)" /><path
           style="fill:#ffa400;fill-opacity:0.74902;fill-rule:evenodd;stroke:none;stroke-width:0.265893;stroke-dasharray:none"
           d="m 69.15793,104.10596 c -2.004082,-1.20034 -3.062155,-11.078183 4.292657,-12.520618 6.257533,-1.227216 -0.108762,-0.146981 1.287567,4.840177 1.629872,5.820731 -2.412322,7.709661 -2.548762,7.714501 l -1.819008,-0.0119 z"
           id="path1764"
           sodipodi:nodetypes="cssscc" /></g></g></g><metadata
     id="metadata1177"><rdf:RDF><cc:Work
         rdf:about=""><cc:license
           rdf:resource="http://artlibre.org/licence/lal" /></cc:Work><cc:License
         rdf:about="http://artlibre.org/licence/lal"><cc:permits
           rdf:resource="http://creativecommons.org/ns#Reproduction" /><cc:permits
           rdf:resource="http://creativecommons.org/ns#Distribution" /><cc:permits
           rdf:resource="http://creativecommons.org/ns#DerivativeWorks" /><cc:requires
           rdf:resource="http://creativecommons.org/ns#ShareAlike" /><cc:requires
           rdf:resource="http://creativecommons.org/ns#Notice" /><cc:requires
           rdf:resource="http://creativecommons.org/ns#Attribution" /></cc:License></rdf:RDF></metadata></svg>
